<svg width="24" height="27" viewBox="0 0 24 27" fill="none" xmlns="http://www.w3.org/2000/svg">
<path fill-rule="evenodd" clip-rule="evenodd" d="M6.86018 0.896242C6.40737 1.06009 6.09081 1.51072 6.09081 1.99143C6.09081 2.84181 6.95326 3.39497 7.72144 3.03723C8.15395 2.83582 8.38748 2.46912 8.38748 1.99143C8.38748 1.84 8.35744 1.64443 8.32077 1.55684C8.08744 1.00006 7.41443 0.695673 6.86018 0.896242ZM7.55858 1.72321C7.68626 1.87944 7.66997 2.14434 7.52369 2.29058C7.36726 2.44705 7.14893 2.44869 6.96999 2.29478C6.66203 2.02988 6.89467 1.52487 7.29506 1.58896C7.39235 1.60454 7.51092 1.66497 7.55858 1.72321ZM18.7797 2.41207V2.80796H18.359H17.9384V3.17911V3.55026H18.359H18.7797V3.97089V4.39153H19.1508H19.522V3.97089V3.55026H19.9179H20.3137V3.17911V2.80796H19.9179H19.522V2.41207V2.01617H19.1508H18.7797V2.41207ZM12.5275 2.46393C11.334 2.66425 10.2663 3.35028 9.57951 4.35813C8.77793 5.53447 8.6411 7.11621 9.22143 8.49748L9.36707 8.84408L8.7707 10.2804C8.44271 11.0705 8.18627 11.7288 8.20087 11.7434C8.21547 11.758 8.87868 11.4996 9.67472 11.1693L11.1221 10.5686L11.4497 10.7181C12.0418 10.9884 12.3429 11.0453 13.1877 11.0463C13.8387 11.0471 14.0131 11.0303 14.3406 10.9355C15.8988 10.4844 17.0362 9.28526 17.4262 7.68239C17.5487 7.17901 17.5359 6.22327 17.3997 5.70292C16.8913 3.76043 15.1124 2.3893 13.1382 2.41825C12.9341 2.42127 12.6593 2.44181 12.5275 2.46393ZM14.1032 3.27486C14.2665 3.31757 14.5894 3.44658 14.8207 3.56159C15.1586 3.72955 15.329 3.85851 15.6867 4.21719C16.1741 4.70577 16.3989 5.04525 16.5777 5.56263C16.9871 6.74778 16.7592 8.04027 15.9674 9.02308C14.9216 10.3213 13.0474 10.7096 11.5461 9.93907L11.1664 9.74424L10.3584 10.08C9.91399 10.2647 9.54487 10.4113 9.53809 10.4059C9.53131 10.4004 9.67829 10.0306 9.86465 9.58401L10.2035 8.77198L10.0414 8.47462C9.00779 6.57908 9.8798 4.19997 11.901 3.40081C12.5354 3.15001 13.4301 3.09884 14.1032 3.27486ZM4.47804 4.78742V5.18331H4.08215H3.68625V5.55446V5.92561H4.08215H4.47804V6.34625V6.76688H4.84919H5.22034V6.34625V5.92561H5.64097H6.06161V5.55446V5.18331H5.64097H5.22034V4.78742V4.39153H4.84919H4.47804V4.78742ZM13.67 4.87353L13.1883 5.35523L12.7175 4.88635L12.2467 4.41746L11.5424 5.12165L10.8383 5.8259L11.3068 6.29637L11.7753 6.76688L11.3068 7.2374L10.8383 7.70787L11.5424 8.41212L12.2467 9.11631L12.7172 8.64777L13.1877 8.17923L13.6582 8.64777L14.1287 9.11631L14.8329 8.41212L15.5371 7.70787L15.0686 7.2374L14.6 6.76688L15.0568 6.30819C15.308 6.05591 15.5135 5.82738 15.5135 5.80031C15.5135 5.77324 15.2071 5.44525 14.8326 5.07147L14.1517 4.39188L13.67 4.87353ZM12.729 5.937L13.1877 6.39376L13.6579 5.92551L14.1281 5.45727L14.3127 5.64191L14.4973 5.82649L14.029 6.29666L13.5608 6.76688L14.029 7.23711L14.4973 7.70728L14.3127 7.89186L14.1281 8.0765L13.6579 7.60826L13.1877 7.14001L12.7175 7.60826L12.2473 8.0765L12.0627 7.89186L11.8781 7.70728L12.3463 7.23711L12.8145 6.76688L12.3472 6.2976L11.8799 5.82837L12.0486 5.65428C12.1414 5.55857 12.2293 5.48023 12.2438 5.48023C12.2584 5.48023 12.4767 5.6858 12.729 5.937ZM20.3814 6.83473C20.0722 6.93568 19.8358 7.14303 19.6898 7.44158C19.5752 7.67571 19.5616 7.75271 19.5843 8.03641C19.6315 8.62417 20.0545 9.04683 20.6323 9.0836C21.713 9.15243 22.2928 7.93838 21.5576 7.14585C21.2718 6.8377 20.7749 6.70626 20.3814 6.83473ZM21.0437 7.68511C21.1732 7.83228 21.1834 7.95402 21.0826 8.14895C20.9583 8.3893 20.6355 8.42924 20.4352 8.22897C20.2628 8.0566 20.2737 7.83852 20.4642 7.64804C20.59 7.52225 20.6407 7.5026 20.7735 7.52809C20.8609 7.54486 20.9824 7.61548 21.0437 7.68511ZM1.78102 12.9032L3.56204 14.6847L1.78102 16.4663L0 18.2478H5.66631H11.3326L12.6433 16.9364C13.3642 16.2151 13.9709 15.625 13.9915 15.625C14.0121 15.625 14.0289 17.8296 14.0289 20.5242V25.4233H9.22875H4.42855V22.2314V19.0396H4.0574H3.68625V22.6026V26.1656H12H20.3137V22.2067V18.2478H22.1569H24L22.219 16.4663L20.438 14.6847L22.219 12.9032L24 11.1217H20.7098H17.4196L16.2692 12.2713L15.1188 13.4209L15.3765 13.6818L15.6341 13.9426L16.6775 12.9033L17.7209 11.864H19.9328C21.1494 11.864 22.1447 11.8809 22.1447 11.9015C22.1447 11.9221 21.6046 12.4788 20.9443 13.1387L19.7439 14.3383H14.7706H9.79725L8.18953 12.73L6.58181 11.1217H3.29091H0L1.78102 12.9032ZM7.48202 13.0627C8.14331 13.722 8.6844 14.2787 8.6844 14.2999C8.6844 14.321 7.68804 14.3383 6.47027 14.3383H4.25609L3.0557 13.1387C2.39545 12.4788 1.85525 11.9221 1.85525 11.9015C1.85525 11.8809 2.85072 11.864 4.06745 11.864H6.27965L7.48202 13.0627ZM12.2474 16.2931L11.0358 17.5055H6.40876H1.78176L2.99344 16.2931L4.20512 15.0806H8.83212H13.4591L12.2474 16.2931ZM19.5714 20.252V25.4233H17.1713H14.7712V20.252V15.0806H17.1713H19.5714V20.252ZM21.2787 16.5652L22.218 17.5055H21.2659H20.3137V16.5652C20.3137 16.0481 20.3195 15.625 20.3266 15.625C20.3337 15.625 20.7621 16.0481 21.2787 16.5652ZM16.4049 21.637L15.6893 22.3539L15.9336 22.602C16.0679 22.7384 16.2003 22.85 16.2277 22.85C16.2551 22.85 16.3951 22.7339 16.5389 22.5919L16.8002 22.3338V23.26V24.1862H17.1713H17.5425V23.26V22.3338L17.8152 22.6031L18.0879 22.8725L18.3466 22.6138L18.6052 22.3552L17.889 21.6377C17.4949 21.2429 17.1609 20.92 17.1466 20.92C17.1323 20.92 16.7985 21.2427 16.4049 21.637ZM7.24929 23.815V24.1862H7.64518H8.04107V23.815V23.4439H7.64518H7.24929V23.815ZM8.83286 23.815V24.1862H9.22875H9.62464V23.815V23.4439H9.22875H8.83286V23.815ZM10.4164 23.815V24.1862H10.8123H11.2082V23.815V23.4439H10.8123H10.4164V23.815Z" fill="black"/>
</svg>
