<svg width="24" height="25" viewBox="0 0 24 25" fill="none" xmlns="http://www.w3.org/2000/svg">
<path fill-rule="evenodd" clip-rule="evenodd" d="M4.25984 0.961684V1.42337H4.6471H5.03435V0.961684V0.5H4.6471H4.25984V0.961684ZM1.35502 1.83684L1.09129 2.10496L1.41693 2.43188L1.74256 2.75885L2.00924 2.49112L2.27592 2.22339L1.94733 1.89608L1.61879 1.56873L1.35502 1.83684ZM7.3337 1.90935L6.99669 2.25032L7.26293 2.51761L7.52917 2.7849L7.86618 2.44393L8.20319 2.10297L7.93695 1.83568L7.67071 1.56839L7.3337 1.90935ZM3.91169 2.03026C1.83657 2.55692 0.832508 4.95136 1.92646 6.76466C2.11966 7.08488 2.59071 7.59152 2.83773 7.7448L2.99031 7.83947L3.01204 8.67725C3.03804 9.67634 3.11065 9.93104 3.4769 10.3076C3.83255 10.6731 4.09438 10.7785 4.6471 10.7785C5.19981 10.7785 5.46164 10.6731 5.81729 10.3076C6.18354 9.93104 6.25615 9.67634 6.28215 8.67725L6.30388 7.83947L6.46527 7.73935C6.554 7.68429 6.77706 7.47751 6.96096 7.27981C7.53318 6.66465 7.79149 5.99244 7.79284 5.1149C7.79371 4.54605 7.70939 4.19493 7.44373 3.66156C7.0889 2.94911 6.38414 2.34581 5.61524 2.09621C5.20596 1.96339 4.31173 1.92874 3.91169 2.03026ZM5.27968 2.81386C6.10377 3.05929 6.73911 3.70112 6.95177 4.50295C7.05105 4.8773 7.03706 5.48551 6.92045 5.86453C6.78292 6.31158 6.47491 6.74489 6.09675 7.02326C5.50357 7.45996 5.52496 7.43688 5.50904 7.65756L5.49422 7.86265H4.6471H3.79997L3.78424 7.66889C3.76473 7.42803 3.74387 7.40315 3.32993 7.12687C2.17925 6.35892 1.91349 4.83308 2.7352 3.71245C3.06423 3.26374 3.58896 2.91106 4.11374 2.78592C4.40448 2.71657 5.00115 2.73086 5.27968 2.81386ZM10.9955 2.78286C10.2948 2.86309 10.0203 2.93274 10.0203 3.03022C10.0203 3.16081 10.1222 3.62939 10.1586 3.66579C10.1757 3.68295 10.364 3.66725 10.577 3.63095C10.79 3.5946 11.2692 3.55037 11.6419 3.53268C15.1516 3.36584 18.4974 5.38326 20.0171 8.58258C20.5983 9.80609 20.9119 11.1545 20.9119 12.429V12.844H20.4499C20.0238 12.844 19.9785 12.8533 19.869 12.9633C19.7979 13.0346 19.7509 13.1371 19.752 13.2184C19.7532 13.3044 19.9896 13.7466 20.3962 14.4232C21.0805 15.5622 21.1499 15.637 21.4296 15.5382C21.5309 15.5024 21.7028 15.2544 22.2022 14.4232C22.6088 13.7466 22.8452 13.3044 22.8464 13.2184C22.8475 13.1371 22.8005 13.0346 22.7294 12.9633C22.6201 12.8535 22.5741 12.844 22.1559 12.844H21.7012L21.6715 12.1272C21.57 9.67546 20.6571 7.49665 19.0034 5.75926C17.5165 4.19717 15.6666 3.22005 13.5056 2.85546C12.9729 2.76561 11.5145 2.72342 10.9955 2.78286ZM0 5.16544V5.55423H0.459869H0.919738V5.16544V4.77665H0.459869H0V5.16544ZM8.37445 5.16544V5.55423H8.83432H9.29419V5.16544V4.77665H8.83432H8.37445V5.16544ZM1.40396 7.8625L1.09221 8.17829L1.3555 8.44592L1.61879 8.71356L1.94684 8.38673L2.2749 8.05986L2.02255 7.80331C1.88372 7.66223 1.75791 7.54676 1.7429 7.54676C1.72795 7.54676 1.57537 7.68886 1.40396 7.8625ZM7.27164 7.80331L7.01929 8.05986L7.34735 8.38673L7.67541 8.71356L7.93869 8.44592L8.20198 8.17829L7.89024 7.8625C7.71883 7.68886 7.56625 7.54676 7.55129 7.54676C7.53628 7.54676 7.41047 7.66223 7.27164 7.80331ZM5.51814 8.94396C5.51746 9.64188 5.19976 10.0253 4.62202 10.0253C4.09056 10.0253 3.77668 9.62409 3.77606 8.94396L3.77577 8.66452H4.6471H5.51843L5.51814 8.94396ZM8.90693 10.1225V10.5113H9.29419H9.68145V10.1225V9.73368H9.29419H8.90693V10.1225ZM10.456 10.1225V10.5113H12.7795H15.1031V10.1225V9.73368H12.7795H10.456V10.1225ZM2.35187 11.7468C2.30743 11.913 2.32001 12.8472 2.37399 13.3856C2.717 16.8083 4.78559 19.7584 7.88017 21.2384C9.11325 21.8281 10.6335 22.1749 11.9859 22.1749H12.3923V22.6387C12.3923 23.0665 12.4015 23.1119 12.5111 23.2219C12.5822 23.2933 12.6842 23.3405 12.7652 23.3394C12.8509 23.3382 13.2914 23.1008 13.9653 22.6927C15.4941 21.7668 15.4941 21.8054 13.9653 20.8795C13.2914 20.4713 12.8509 20.2339 12.7652 20.2328C12.6842 20.2317 12.5822 20.2788 12.5111 20.3502C12.4015 20.4602 12.3923 20.5056 12.3923 20.9334V21.3973H11.9789C9.86748 21.3973 7.73161 20.5743 6.09747 19.1311C4.16946 17.4285 3.02361 14.7912 3.10547 12.2449C3.12454 11.6508 3.16148 11.6983 2.65373 11.6643C2.40836 11.6479 2.37597 11.6567 2.35187 11.7468ZM8.90693 12.844V13.2328H9.29419H9.68145V12.844V12.4552H9.29419H8.90693V12.844ZM10.456 12.844V13.2328H12.7795H15.1031V12.844V12.4552H12.7795H10.456V12.844ZM21.551 14.0091C21.4258 14.2223 21.3125 14.3967 21.2992 14.3967C21.2859 14.3967 21.1726 14.2223 21.0474 14.0091L20.8198 13.6215H21.2992H21.7786L21.551 14.0091ZM8.90693 15.5655V15.9543H9.29419H9.68145V15.5655V15.1767H9.29419H8.90693V15.5655ZM10.456 15.5655V15.9543H12.7795H15.1031V15.5655V15.1767H12.7795H10.456V15.5655ZM19.4355 16.8008C18.3802 17.008 17.4744 17.618 16.892 18.5137C16.4618 19.1754 16.2912 19.7732 16.2912 20.6197C16.2912 21.4641 16.4621 22.0653 16.8884 22.7195C18.0643 24.5242 20.4578 25.0428 22.2352 23.8779C24.3008 22.5241 24.6069 19.6234 22.8684 17.878C22.3668 17.3745 21.7909 17.0462 21.0579 16.8462C20.6803 16.7431 19.8477 16.7198 19.4355 16.8008ZM20.7847 17.5819C22.5607 17.9596 23.6627 19.8882 23.0738 21.5881C22.9031 22.0809 22.6819 22.4349 22.3137 22.8045C21.0875 24.0355 19.1852 24.0353 17.9524 22.804C16.7378 21.5908 16.7395 19.6513 17.9561 18.4298C18.7076 17.6754 19.7522 17.3623 20.7847 17.5819ZM19.7502 18.4765C19.7502 18.6637 19.7472 18.6668 19.509 18.7242C19.1916 18.8006 18.9171 19.0062 18.7489 19.2934C18.5558 19.6232 18.5549 20.0596 18.7468 20.3872C19.0205 20.8547 19.3668 21.0085 20.1457 21.0085C20.6424 21.0085 20.6815 21.0157 20.7931 21.1278C20.868 21.203 20.9119 21.3026 20.9119 21.3973C20.9119 21.492 20.868 21.5916 20.7931 21.6668C20.6822 21.7781 20.6409 21.7861 20.1703 21.7861C19.7375 21.7861 19.6488 21.7722 19.5417 21.6876C19.4731 21.6335 19.4034 21.546 19.3867 21.4932C19.3598 21.4082 19.3122 21.3973 18.967 21.3973H18.5776L18.6108 21.5795C18.6916 22.0234 19.06 22.4071 19.509 22.5152C19.7472 22.5726 19.7502 22.5757 19.7502 22.7629V22.9524H20.1374H20.5247V22.7629C20.5247 22.5757 20.5277 22.5726 20.7658 22.5152C21.0832 22.4388 21.3578 22.2332 21.5259 21.9461C21.719 21.6162 21.7199 21.1798 21.5281 20.8522C21.2521 20.3808 20.9293 20.2361 20.1473 20.2331C19.6327 20.2311 19.5936 20.2239 19.4817 20.1116C19.3245 19.9538 19.3245 19.7305 19.4817 19.5727C19.5926 19.4613 19.634 19.4533 20.1045 19.4533C20.5373 19.4533 20.626 19.4672 20.7331 19.5518C20.8017 19.6059 20.8715 19.6934 20.8881 19.7462C20.915 19.8312 20.9627 19.8421 21.3079 19.8421H21.6972L21.664 19.6599C21.5832 19.216 21.2148 18.8323 20.7658 18.7242C20.5277 18.6668 20.5247 18.6637 20.5247 18.4765V18.287H20.1374H19.7502V18.4765ZM13.9389 21.7861C13.9389 21.7994 13.7652 21.9132 13.5528 22.0389L13.1668 22.2674V21.7861V21.3048L13.5528 21.5333C13.7652 21.6589 13.9389 21.7727 13.9389 21.7861Z" fill="black"/>
</svg>
