<svg width="24" height="25" viewBox="0 0 24 25" fill="none" xmlns="http://www.w3.org/2000/svg">
<path fill-rule="evenodd" clip-rule="evenodd" d="M6.76912 1.93091C3.56437 2.84685 1.78228 3.37743 1.72007 3.43419C1.61057 3.53404 0.266807 5.77391 0.109119 6.11943C-0.039006 6.44399 -0.0358185 7.12274 0.115588 7.50824C0.308291 7.99869 0.832447 8.46285 1.37432 8.62279L1.57354 8.68161V12.1823C1.57354 15.9794 1.57153 15.9475 1.83121 16.2879C2.0646 16.5939 2.2229 16.6551 4.13821 17.1792L5.97637 17.6822L5.98978 20.4987C6.00304 23.2793 6.00454 23.318 6.10537 23.5363C6.24862 23.8463 6.60051 24.2049 6.91143 24.3576L7.1751 24.4871H11.9798H16.7845L17.0465 24.3584C17.3765 24.1964 17.6663 23.9058 17.8296 23.5733L17.9564 23.3152L17.9698 20.4999L17.9832 17.6846L19.7511 17.2028C20.7233 16.9378 21.6084 16.6789 21.7179 16.6273C21.8274 16.5757 21.9914 16.4466 22.0823 16.3405C22.3921 15.9785 22.386 16.0614 22.386 12.1813V8.68161L22.5853 8.62208C23.0472 8.48408 23.49 8.14424 23.7206 7.75077C23.9982 7.27724 24.0488 6.57519 23.8395 6.10185C23.6912 5.76627 22.3521 3.53872 22.2322 3.42819C22.0786 3.28649 12.2975 0.509568 11.9638 0.512943C11.7927 0.514677 10.2738 0.929286 6.76912 1.93091ZM16.2167 2.48446C18.4884 3.13185 20.3724 3.67532 20.4035 3.69219C20.4346 3.70907 18.5535 4.25657 16.2234 4.90888L11.9868 6.09487L7.7452 4.90818C5.41232 4.25544 3.51206 3.71296 3.52228 3.7026C3.56432 3.66008 11.8263 1.31741 11.9511 1.31258C12.0256 1.30972 13.9451 1.83707 16.2167 2.48446ZM22.4947 5.35251C23.1529 6.45786 23.231 6.65024 23.1585 6.98666C23.0887 7.31047 22.865 7.62421 22.6082 7.75836C22.537 7.79554 20.8601 8.28022 18.8816 8.83546C14.8408 9.96946 14.9346 9.9516 14.4847 9.67265C14.2795 9.54538 14.1925 9.42013 13.4283 8.15113C12.9201 7.30724 12.6171 6.76007 12.6509 6.74713C12.6814 6.73546 14.7419 6.15393 17.2298 5.45479C20.4715 4.54382 21.7681 4.19788 21.8059 4.23379C21.8348 4.2614 22.1448 4.76479 22.4947 5.35251ZM6.74648 5.46051C9.19593 6.14629 11.2365 6.72107 11.2812 6.73785C11.3496 6.76354 11.2393 6.97321 10.5803 8.06994C10.1502 8.78582 9.73589 9.43761 9.65962 9.51838C9.46968 9.71966 9.19129 9.83638 8.89832 9.8376C8.73515 9.8383 8.28703 9.73527 7.56238 9.53052C6.96267 9.36107 5.34885 8.90816 3.97617 8.52407C2.60343 8.13997 1.42218 7.79535 1.35117 7.75822C0.944807 7.54597 0.695478 6.97611 0.816744 6.5369C0.890432 6.26999 2.13299 4.21363 2.2206 4.21363C2.2604 4.21363 4.29707 4.77472 6.74648 5.46051ZM11.5579 9.65113V11.2918H9.57435C8.34848 11.2918 7.48453 11.3112 7.31264 11.3427C6.77137 11.4418 6.36698 11.7582 6.12674 12.2705L6.00323 12.5339L5.98978 14.6948L5.97628 16.8558L4.27884 16.3912C3.11859 16.0737 2.55168 15.8975 2.4876 15.8345C2.39578 15.7442 2.39357 15.6718 2.38124 12.324L2.36863 8.90563L2.59218 8.97027C2.71513 9.00585 4.10793 9.39665 5.68724 9.83872C8.23757 10.5526 8.59729 10.6423 8.90324 10.6407C9.3097 10.6386 9.61228 10.546 9.95517 10.3189C10.2753 10.1068 10.3949 9.94569 11.0189 8.88693C11.3024 8.40566 11.5398 8.01158 11.5462 8.01121C11.5526 8.01083 11.5579 8.74879 11.5579 9.65113ZM13.7321 10.0864C14.053 10.4244 14.4755 10.6073 14.9831 10.6279C15.3806 10.644 15.4148 10.6358 18.2643 9.84027C19.8481 9.3981 21.2444 9.00693 21.3674 8.97097L21.5909 8.90563L21.5783 12.324C21.566 15.6718 21.5638 15.7442 21.472 15.8343C21.408 15.8971 20.8386 16.0739 19.6807 16.3907L17.9833 16.855L17.9698 14.6945L17.9564 12.5339L17.8328 12.2705C17.5926 11.7582 17.1882 11.4418 16.6469 11.3427C16.4751 11.3112 15.6111 11.2918 14.3852 11.2918H12.4017L12.4019 9.63941L12.402 7.98707L12.9606 8.92457C13.2679 9.44019 13.615 9.96299 13.7321 10.0864ZM16.5465 12.1335C16.7994 12.1922 16.9532 12.3152 17.0774 12.5583L17.1829 12.7648V17.908C17.1829 21.428 17.1672 23.0929 17.133 23.1832C17.0652 23.3628 16.8629 23.571 16.6805 23.6491C16.5559 23.7024 15.7396 23.7136 11.9843 23.7136C8.88684 23.7136 7.39701 23.6977 7.30706 23.6638C7.12748 23.5959 6.91926 23.3937 6.84121 23.2112C6.78773 23.0862 6.77667 22.1795 6.77667 17.9126V12.7648L6.88213 12.5583C7.00743 12.3131 7.17403 12.1813 7.41815 12.134C7.68023 12.0833 16.328 12.0828 16.5465 12.1335ZM9.75323 13.3943C9.67588 13.4441 9.42365 13.6765 9.1927 13.9107L8.77279 14.3367L8.67482 14.2446C8.50626 14.0863 8.31515 14.0779 8.14457 14.2214C8.02931 14.3185 7.99542 14.3842 7.99542 14.5109C7.99542 14.6478 8.04262 14.724 8.28154 14.9728C8.58501 15.2889 8.75924 15.3681 8.94187 15.2728C9.09351 15.1938 10.1845 14.1132 10.299 13.9286C10.5302 13.5562 10.1221 13.1568 9.75323 13.3943ZM11.3199 14.2413C11.1451 14.4161 11.1367 14.6248 11.298 14.7861L11.413 14.9011H13.5735H15.7341L15.8491 14.7861C15.9623 14.6729 15.9976 14.4804 15.9351 14.3173C15.8569 14.1137 15.7509 14.1043 13.5488 14.1043H11.4569L11.3199 14.2413ZM9.87042 15.7304C9.83174 15.7442 9.57581 15.977 9.30168 16.2478L8.80326 16.7402L8.65935 16.6338C8.46393 16.4893 8.23795 16.4994 8.10088 16.6588C7.91821 16.8711 7.95838 17.027 8.28299 17.365C8.59429 17.6892 8.68514 17.7389 8.8777 17.6906C9.01978 17.6549 10.214 16.4992 10.3226 16.2922C10.4214 16.1038 10.3646 15.8997 10.1824 15.7885C10.0295 15.6953 9.98981 15.6879 9.87042 15.7304ZM11.434 16.5406C11.1787 16.6455 11.1061 16.9848 11.298 17.1767L11.413 17.2918H13.5914H15.7699L15.867 17.1682C16.0031 16.9953 15.9932 16.7729 15.8432 16.6319L15.7223 16.5183L13.6284 16.5088C12.4768 16.5036 11.4893 16.5179 11.434 16.5406ZM9.30042 18.6346L8.80129 19.1338L8.67328 19.0331C8.39357 18.8131 7.99542 18.9822 7.99542 19.321C7.99542 19.4556 8.04421 19.5266 8.31899 19.7919C8.80204 20.2582 8.79098 20.2613 9.64218 19.4169C10.3788 18.6861 10.4471 18.577 10.3204 18.3321C10.2397 18.1761 10.163 18.1355 9.94832 18.1355C9.82176 18.1355 9.72501 18.21 9.30042 18.6346ZM11.298 19.0475C11.149 19.1964 11.1482 19.4024 11.296 19.5743L11.4092 19.7058H13.5657H15.7222L15.8432 19.5922C16.0039 19.4412 16.0097 19.179 15.8557 19.0343C15.7475 18.9327 15.7406 18.9324 13.5801 18.9324H11.413L11.298 19.0475ZM9.30103 21.0272L8.79253 21.5283L8.65368 21.4257C8.3602 21.2087 7.99542 21.3738 7.99542 21.7236C7.99542 21.8708 8.03662 21.9354 8.29574 22.1946C8.55895 22.4577 8.61801 22.4949 8.77312 22.4949C8.93854 22.4949 8.99573 22.4495 9.64429 21.8035C10.4291 21.0218 10.4812 20.9276 10.2689 20.6753C10.1711 20.5591 10.1064 20.5261 9.97645 20.5261C9.82729 20.5261 9.75548 20.5794 9.30103 21.0272ZM11.298 21.4381C11.1367 21.5993 11.1451 21.808 11.3199 21.9829L11.4569 22.1199H13.5496C15.6914 22.1199 15.7678 22.1139 15.9041 21.9365C16.0025 21.8083 15.9756 21.5645 15.8491 21.4381L15.7341 21.323H13.5735H11.413L11.298 21.4381Z" fill="black"/>
</svg>
