<svg width="20" height="20" viewBox="0 0 20 20" fill="none" xmlns="http://www.w3.org/2000/svg">
<path fill-rule="evenodd" clip-rule="evenodd" d="M1.26949 0.0552771C0.692113 0.198341 0.210495 0.677419 0.0543053 1.26405C0.00980794 1.43122 0.000666259 2.76692 0.000275588 9.16301C-0.000232283 17.5867 -0.0133197 17.0971 0.223309 17.501C0.365318 17.7433 0.656836 18.0247 0.883464 18.1382C0.988359 18.1907 2.25202 18.6272 3.69164 19.1081L6.30913 19.9827L6.66073 19.9827C7.09129 19.9826 7.33222 19.9064 7.65601 19.6681C7.91955 19.4741 8.12778 19.1872 8.24303 18.8593C8.30729 18.6764 8.32108 18.5369 8.32108 18.0697V17.5023L9.79586 17.5016C10.91 17.5011 11.3339 17.4875 11.5291 17.4461C12.3367 17.2749 13.0554 16.578 13.2624 15.7653C13.3496 15.4227 13.351 11.3433 13.2638 11.1749C13.1369 10.9293 12.8148 10.7869 12.5487 10.8586C12.3686 10.9071 12.1619 11.1117 12.1099 11.2929C12.087 11.3728 12.0714 12.2384 12.0711 13.439L12.0707 15.4512L11.9788 15.6488C11.9282 15.7574 11.812 15.9102 11.7207 15.9885C11.4211 16.2449 11.3674 16.2521 9.76004 16.2521H8.32198L8.31175 9.58142L8.30155 2.91073L8.17896 2.65198C7.90807 2.08024 7.64011 1.8967 6.53857 1.52846L5.72313 1.25585L8.46063 1.25311C11.5063 1.25006 11.4026 1.24178 11.7207 1.51404C11.812 1.59225 11.9282 1.74512 11.9788 1.85373L12.0707 2.05125L12.0714 4.0632C12.0717 5.30159 12.0872 6.13 12.1116 6.21783C12.1656 6.41215 12.4084 6.62565 12.615 6.66057C12.8227 6.69566 13.1072 6.56306 13.2337 6.37214L13.3217 6.23939V4.10469C13.3217 1.75368 13.3205 1.74055 13.0768 1.25038C12.9952 1.08622 12.8457 0.889553 12.6539 0.694023C12.4135 0.448877 12.2951 0.362578 12.0289 0.238267C11.8482 0.153921 11.5961 0.0658642 11.4686 0.0425803C11.1168 -0.021685 1.53198 -0.00976954 1.26949 0.0552771ZM4.32609 2.11298C6.49306 2.83529 6.9267 2.99183 6.99241 3.07539C7.07047 3.17458 7.07094 3.22224 7.07094 10.831V18.4867L6.93811 18.6196C6.849 18.7087 6.76852 18.7524 6.69359 18.7524C6.5876 18.7524 1.63621 17.1227 1.45869 17.0294C1.41235 17.005 1.34567 16.93 1.31047 16.8628C1.25167 16.7505 1.24741 16.1171 1.25796 9.11672C1.26941 1.55619 1.27015 1.49224 1.34762 1.40614C1.43458 1.30948 1.54245 1.25659 1.66016 1.25284C1.70313 1.25151 2.9028 1.63855 4.32609 2.11298ZM15.9958 5.05578C15.8358 5.12547 15.6745 5.32433 15.6433 5.49028C15.5806 5.82477 15.5887 5.83583 16.7713 7.02253L17.8711 8.12617L14.5904 8.1268L11.3097 8.12746L11.1556 8.21474C10.7323 8.45449 10.7437 9.07917 11.1754 9.2994C11.3218 9.37409 11.4205 9.37632 14.5986 9.37632H17.8711L16.7713 10.48C15.5842 11.6712 15.5804 11.6765 15.6451 12.0212C15.6811 12.2135 15.9148 12.4472 16.1071 12.4832C16.4625 12.5499 16.4068 12.5946 18.2175 10.7898C19.1376 9.8727 19.9155 9.07492 19.9463 9.0169C20.018 8.88146 20.0179 8.6208 19.9461 8.48559C19.8594 8.32256 16.5981 5.08789 16.4738 5.04168C16.3267 4.98702 16.1411 4.99249 15.9958 5.05578Z" fill="#474747"/>
</svg>
