<svg width="24" height="25" viewBox="0 0 24 25" fill="none" xmlns="http://www.w3.org/2000/svg">
<circle cx="12" cy="12.9915" r="12" fill="#D9D9D9"/>
<path fill-rule="evenodd" clip-rule="evenodd" d="M11.5905 7.42404C11.0173 7.52128 10.4523 7.83446 10.0895 8.25611C9.20023 9.28928 9.24888 10.7818 10.2029 11.7358C11.1539 12.6868 12.6505 12.7375 13.6777 11.8534C13.9946 11.5807 14.2872 11.1385 14.4197 10.7322C14.804 9.55327 14.2807 8.26095 13.1883 7.69156C12.6867 7.43005 12.1171 7.33469 11.5905 7.42404ZM12.28 8.14383C13.2551 8.29469 13.9407 9.21816 13.7988 10.1892C13.6088 11.4886 12.1632 12.1703 11.0502 11.4853C10.4139 11.0937 10.0735 10.3348 10.212 9.61645C10.4017 8.63249 11.3007 7.9923 12.28 8.14383ZM14.3952 12.125C14.3423 12.1512 14.2797 12.2049 14.2559 12.2444C14.1404 12.4369 14.1728 12.5613 14.4039 12.8122C14.9156 13.368 15.2186 14.073 15.2677 14.8222C15.2871 15.1188 15.2664 15.1786 15.0853 15.3481C14.3892 15.9992 12.3422 16.3038 10.6235 16.012C9.88059 15.8859 9.22207 15.6332 8.92882 15.3617C8.7367 15.1838 8.71416 15.1237 8.73179 14.8358C8.77729 14.0921 9.08279 13.3676 9.57582 12.8342C9.75975 12.6352 9.80143 12.5541 9.78671 12.4237C9.75925 12.18 9.48381 12.0232 9.27431 12.132C9.1872 12.1772 8.93779 12.4424 8.77372 12.6642C8.31029 13.2908 8.04397 14.0437 8.0035 14.8417C7.98152 15.2748 8.05976 15.4992 8.33497 15.792C9.31138 16.831 12.3259 17.1825 14.4093 16.5004C14.9797 16.3137 15.3962 16.0782 15.6686 15.7883C15.94 15.4994 16.0184 15.2731 15.9965 14.8417C15.9478 13.8806 15.5639 12.9722 14.9257 12.3076C14.6977 12.0703 14.5844 12.0313 14.3952 12.125Z" fill="#474747"/>
</svg>
