<svg width="18" height="18" viewBox="0 0 18 18" fill="none" xmlns="http://www.w3.org/2000/svg">
<path fill-rule="evenodd" clip-rule="evenodd" d="M1.21638 0.0542838C0.819316 0.151343 0.430304 0.449871 0.208333 0.827911C0.00992402 1.16583 -0.00417774 1.32517 0.00697004 3.09967C0.0167815 4.65902 0.0191728 4.70881 0.0895761 4.80306C0.227394 4.98758 0.33975 5.04515 0.562143 5.04515C0.784501 5.04515 0.896893 4.98758 1.03471 4.80306C1.10487 4.70917 1.10779 4.65311 1.12481 3.08046C1.14411 1.29661 1.13733 1.35038 1.36106 1.2037C1.44693 1.1474 1.60543 1.14005 3.08119 1.12408C4.65383 1.10706 4.70989 1.10414 4.80378 1.03399C4.9883 0.896169 5.04587 0.783777 5.04587 0.56142C5.04587 0.339027 4.9883 0.22667 4.80378 0.0888525C4.70929 0.0182733 4.66315 0.0161634 3.06522 0.00997406C1.73874 0.00483976 1.38395 0.0133149 1.21638 0.0542838ZM13.2731 0.0482352C12.9436 0.19175 12.8399 0.640509 13.0724 0.916847C13.2466 1.12391 13.2482 1.12408 14.9529 1.12422C16.4344 1.12433 16.5156 1.12767 16.6225 1.19287C16.8687 1.34299 16.8599 1.27804 16.8794 3.08046C16.8964 4.65314 16.8993 4.7092 16.9695 4.80309C17.1073 4.98758 17.2197 5.04515 17.4421 5.04515C17.6644 5.04515 17.7768 4.98758 17.9146 4.80306C17.985 4.70881 17.9874 4.65902 17.9972 3.09967C18.0084 1.32429 17.9943 1.16593 17.7953 0.826927C17.6604 0.597184 17.3746 0.311984 17.165 0.197904C16.824 0.0122951 16.6835 -0.000294549 14.9628 0.000654946C13.7258 0.00132311 13.3569 0.0116972 13.2731 0.0482352ZM3.46703 2.30543C3.06962 2.40161 2.67291 2.70598 2.45983 3.07821C2.26279 3.42239 2.25119 3.54864 2.25119 5.34406C2.25119 7.13949 2.26279 7.26573 2.45983 7.60991C2.59016 7.83761 2.85123 8.09869 3.07894 8.22901C3.42251 8.4257 3.5508 8.43762 5.33121 8.43818C6.27585 8.4385 7.03084 8.42391 7.13968 8.40326C7.56298 8.32301 8.00594 8.00121 8.2284 7.61233C8.42691 7.26538 8.43838 7.14145 8.43838 5.34406C8.43838 3.54846 8.42681 3.42253 8.22963 3.0779C8.00453 2.68449 7.5646 2.3636 7.14228 2.28475C7.03098 2.264 6.27677 2.25061 5.31363 2.25233C4.02231 2.25465 3.63038 2.2659 3.46703 2.30543ZM10.7817 2.30543C10.3842 2.40161 9.98753 2.70598 9.77446 3.07821C9.57742 3.42239 9.56582 3.54864 9.56582 5.34406C9.56582 7.13949 9.57742 7.26573 9.77446 7.60991C9.90479 7.83761 10.1659 8.09869 10.3936 8.22901C10.7371 8.4257 10.8654 8.43762 12.6458 8.43818C13.5905 8.4385 14.3455 8.42391 14.4543 8.40326C14.8776 8.32301 15.3206 8.00121 15.543 7.61233C15.7415 7.26538 15.753 7.14145 15.753 5.34406C15.753 3.54846 15.7414 3.42253 15.5443 3.0779C15.3192 2.68449 14.8792 2.3636 14.4569 2.28475C14.3456 2.264 13.5914 2.25061 12.6283 2.25233C11.3369 2.25465 10.945 2.2659 10.7817 2.30543ZM7.07153 3.45457C7.31966 3.62031 7.31618 3.59186 7.30581 5.38549C7.29677 6.94723 7.29452 6.99456 7.22369 7.09106C7.05978 7.3144 7.06924 7.31328 5.34478 7.31328C3.60014 7.31328 3.61888 7.31567 3.45529 7.07081L3.37546 6.95131L3.3756 5.34765C3.37571 3.80947 3.37859 3.73931 3.44562 3.62938C3.48406 3.56632 3.56705 3.48333 3.6301 3.4449C3.74003 3.37787 3.81019 3.37498 5.34837 3.37488L6.95203 3.37474L7.07153 3.45457ZM14.3862 3.45457C14.6343 3.62031 14.6308 3.59186 14.6204 5.38549C14.6114 6.94723 14.6091 6.99456 14.5383 7.09106C14.3744 7.3144 14.3839 7.31328 12.6594 7.31328C10.9148 7.31328 10.9335 7.31567 10.7699 7.07081L10.6901 6.95131L10.6902 5.34765C10.6903 3.80947 10.6932 3.73931 10.7602 3.62938C10.7987 3.56632 10.8817 3.48333 10.9447 3.4449C11.0547 3.37787 11.1248 3.37498 12.663 3.37488L14.2667 3.37474L14.3862 3.45457ZM4.83311 4.5481C4.68963 4.61253 4.54383 4.7916 4.51654 4.93694C4.50434 5.002 4.49977 5.22988 4.50638 5.44337C4.51936 5.8628 4.54946 5.94041 4.76049 6.09796C4.84764 6.16302 4.90759 6.17047 5.34478 6.17047C5.87668 6.17047 5.9309 6.15307 6.09868 5.92835C6.16374 5.84121 6.1712 5.78125 6.1712 5.34406C6.1712 4.90687 6.16374 4.84691 6.09868 4.75977C5.93562 4.54135 5.87045 4.51842 5.38632 4.50882C5.06813 4.50253 4.90963 4.51378 4.83311 4.5481ZM12.1477 4.5481C12.0043 4.61253 11.8585 4.7916 11.8312 4.93694C11.819 5.002 11.8144 5.22988 11.821 5.44337C11.834 5.8628 11.8641 5.94041 12.0751 6.09796C12.1623 6.16302 12.2222 6.17047 12.6594 6.17047C13.1913 6.17047 13.2455 6.15307 13.4133 5.92835C13.4784 5.84121 13.4858 5.78125 13.4858 5.34406C13.4858 4.90687 13.4784 4.84691 13.4133 4.75977C13.2502 4.54135 13.1851 4.51842 12.7009 4.50882C12.3828 4.50253 12.2243 4.51378 12.1477 4.5481ZM3.46703 9.62006C3.06962 9.71624 2.67291 10.0206 2.45983 10.3928C2.26279 10.737 2.25119 10.8633 2.25119 12.6587C2.25119 14.4541 2.26279 14.5804 2.45983 14.9245C2.59016 15.1522 2.85123 15.4133 3.07894 15.5436C3.42251 15.7403 3.5508 15.7522 5.33121 15.7528C6.27585 15.7531 7.03084 15.7385 7.13968 15.7179C7.56298 15.6376 8.00594 15.3158 8.2284 14.927C8.42691 14.58 8.43838 14.4561 8.43838 12.6587C8.43838 10.8631 8.42681 10.7372 8.22963 10.3925C8.00453 9.99912 7.5646 9.67822 7.14228 9.59938C7.03098 9.57863 6.27677 9.56523 5.31363 9.56696C4.02231 9.56928 3.63038 9.58053 3.46703 9.62006ZM10.2327 9.59608C9.98834 9.6727 9.77407 9.8542 9.64782 10.0915C9.5873 10.2053 9.58234 10.3147 9.58234 11.5334C9.58234 12.8183 9.58428 12.8557 9.65837 12.9928C9.74801 13.1586 9.92043 13.3282 10.0923 13.4196C10.2032 13.4786 10.322 13.4862 11.2944 13.4958L12.3734 13.5064L12.3845 14.3046C12.3969 15.1931 12.4118 15.2563 12.6651 15.4944C12.9225 15.7364 12.9186 15.7358 14.0661 15.7358C15.0626 15.7358 15.109 15.7328 15.2441 15.6597C15.41 15.5701 15.5796 15.3977 15.671 15.2258C15.7306 15.1138 15.7365 15.0096 15.7365 14.0653C15.7365 12.9179 15.7371 12.9218 15.4952 12.6644C15.257 12.4111 15.1938 12.3962 14.3053 12.3838L13.5071 12.3726L13.4965 11.2936C13.4863 10.2652 13.4823 10.208 13.4098 10.074C13.3202 9.90814 13.1477 9.7385 12.9759 9.6471C12.8632 9.58711 12.7465 9.58106 11.5868 9.57501C10.8905 9.57139 10.2812 9.58085 10.2327 9.59608ZM7.07153 10.7692C7.31966 10.9349 7.31618 10.9065 7.30581 12.7001C7.29677 14.2619 7.29452 14.3092 7.22369 14.4057C7.05978 14.629 7.06924 14.6279 5.34478 14.6279C3.60014 14.6279 3.61888 14.6303 3.45529 14.3854L3.37546 14.2659L3.3756 12.6623C3.37571 11.1241 3.37859 11.0539 3.44562 10.944C3.48406 10.881 3.56705 10.798 3.6301 10.7595C3.74003 10.6925 3.81019 10.6896 5.34837 10.6895L6.95203 10.6894L7.07153 10.7692ZM12.3781 11.5334V12.3774H11.5341H10.6901V11.5334V10.6894H11.5341H12.3781V11.5334ZM4.83311 11.8627C4.68963 11.9272 4.54383 12.1062 4.51654 12.2516C4.50434 12.3166 4.49977 12.5445 4.50638 12.758C4.51936 13.1774 4.54946 13.255 4.76049 13.4126C4.84764 13.4776 4.90759 13.4851 5.34478 13.4851C5.87668 13.4851 5.9309 13.4677 6.09868 13.243C6.16374 13.1558 6.1712 13.0959 6.1712 12.6587C6.1712 12.2215 6.16374 12.1615 6.09868 12.0744C5.93562 11.856 5.87045 11.833 5.38632 11.8234C5.06813 11.8172 4.90963 11.8284 4.83311 11.8627ZM0.333561 12.9877C0.203304 13.048 0.0865166 13.1721 0.0370022 13.3028C0.0124208 13.3676 -0.000344591 13.9442 7.07414e-06 14.9732C0.000569738 16.7005 0.0131945 16.8327 0.210338 17.1773C0.337148 17.399 0.598224 17.6599 0.828635 17.7951C1.16655 17.9935 1.32589 18.0077 3.10039 17.9965C4.65974 17.9867 4.70954 17.9843 4.80378 17.9139C4.9883 17.7761 5.04587 17.6637 5.04587 17.4413C5.04587 17.219 4.9883 17.1066 4.80382 16.9688C4.70992 16.8986 4.65387 16.8957 3.08119 16.8787C1.29733 16.8594 1.3511 16.8661 1.20442 16.6424C1.14812 16.5565 1.14077 16.398 1.12481 14.9223C1.10779 13.3496 1.10487 13.2936 1.03471 13.1997C0.994832 13.1463 0.920841 13.0717 0.870307 13.034C0.753765 12.947 0.4737 12.9228 0.333561 12.9877ZM17.2135 12.9877C17.0832 13.048 16.9664 13.1721 16.9169 13.3028C16.8924 13.3674 16.8794 13.9353 16.8793 14.938C16.8793 16.6307 16.88 16.6246 16.6571 16.7883C16.561 16.8588 16.5067 16.8616 14.9276 16.8787C13.3503 16.8957 13.2943 16.8986 13.2004 16.9688C13.0159 17.1066 12.9583 17.219 12.9583 17.4413C12.9583 17.6637 13.0159 17.7761 13.2004 17.9139C13.2947 17.9843 13.3441 17.9867 14.9115 17.9962C16.6423 18.0067 16.7993 17.9946 17.1335 17.8241C17.3369 17.7203 17.6696 17.3945 17.7939 17.1773C17.996 16.8239 18.0078 16.693 17.9969 14.9108C17.9874 13.3434 17.985 13.294 17.9146 13.1997C17.8747 13.1463 17.8007 13.0717 17.7502 13.034C17.6337 12.947 17.3536 12.9228 17.2135 12.9877ZM14.6287 14.0653V14.628H14.0661H13.5034V14.0653V13.5027H14.0661H14.6287V14.0653Z" fill="#474747"/>
</svg>
