<svg width="24" height="25" viewBox="0 0 24 25" fill="none" xmlns="http://www.w3.org/2000/svg">
<path fill-rule="evenodd" clip-rule="evenodd" d="M4.75857 3.33194C2.25357 4.88729 0.158103 6.20448 0.10203 6.25897L0 6.35804V12.1378C0 17.5672 0.00515501 17.9239 0.0851064 18.0234C0.200657 18.1672 9.3513 23.8271 9.46821 23.8271C9.51927 23.8271 10.6542 23.1513 11.9902 22.3254L14.4195 20.8237L14.4438 22.1036C14.4678 23.3681 14.4696 23.3866 14.5987 23.6491C14.7439 23.9444 14.9745 24.1843 15.284 24.3618L15.4894 24.4795L19.1439 24.4938C22.7159 24.5078 22.8045 24.5058 23.0627 24.4021C23.4197 24.2588 23.6988 23.9896 23.8633 23.63L24 23.3313V17.6681V12.005L23.8955 11.7623C23.7618 11.4518 23.4449 11.112 23.1562 10.9693C22.9613 10.8731 22.822 10.8552 22.1469 10.8398L21.3637 10.8219L21.2896 10.6551C21.1746 10.3963 20.9675 10.1585 20.7477 10.0328C20.5688 9.93051 20.4593 9.91621 19.7325 9.90024L18.9179 9.88228V8.12118C18.9179 6.36195 18.9178 6.35992 18.8085 6.25088C18.7483 6.1908 16.6495 4.87142 14.1444 3.31884C10.9104 1.31451 9.54962 0.497189 9.45138 0.500007C9.36156 0.502617 7.71672 1.49521 4.75857 3.33194ZM11.3597 2.43649C12.8291 3.3452 13.2181 3.60716 13.169 3.65518C13.1345 3.6888 11.2417 4.87022 8.96258 6.28058L4.81872 8.84486L2.94434 7.68535C1.91339 7.04763 1.06991 6.51332 1.06991 6.49802C1.06991 6.46728 9.38714 1.29159 9.44905 1.28382C9.4704 1.28115 10.3302 1.79987 11.3597 2.43649ZM15.9295 5.26795C17.8381 6.44953 17.9005 6.49322 17.7911 6.56807C17.7288 6.61061 15.8301 7.78974 13.5717 9.18835C10.4417 11.1268 9.44749 11.7195 9.38937 11.6819C9.3474 11.6548 8.46507 11.1069 7.42857 10.4643C6.39207 9.82173 5.54422 9.28308 5.54436 9.26732C5.54461 9.24336 13.9036 4.04529 13.9418 4.04529C13.9489 4.04529 14.8433 4.59547 15.9295 5.26795ZM6.28571 10.5942L9.14286 12.3606V17.5943V22.828L8.30395 22.3084C7.84258 22.0226 5.93863 20.845 4.07295 19.6916L0.680851 17.5944V12.3618V7.12927L2.05471 7.97853C2.81031 8.44562 4.71431 9.62266 6.28571 10.5942ZM18.2371 8.50215V9.87946L18.057 9.91574C17.6708 9.99351 17.314 10.2936 17.1728 10.6594L17.1101 10.8218L16.3241 10.8392C15.5789 10.8558 15.5236 10.8643 15.2617 11.0023C14.9486 11.1673 14.7202 11.4202 14.5705 11.7675C14.4699 12.0007 14.4676 12.0764 14.4438 15.9904L14.4195 19.9759L13.0334 20.8371C12.2711 21.3107 11.2371 21.9531 10.7356 22.2646L9.82371 22.8309V17.5965V12.3619L14.0182 9.74824C16.3253 8.3107 18.2183 7.13235 18.2249 7.12963C18.2316 7.12697 18.2371 7.74459 18.2371 8.50215ZM20.552 10.7993C20.6804 10.9371 20.7173 11.0198 20.7173 11.1699C20.7173 11.3199 20.6804 11.4026 20.552 11.5405L20.3866 11.7179H19.234H18.0815L17.9161 11.5405C17.7877 11.4026 17.7508 11.3199 17.7508 11.1699C17.7508 11.0198 17.7877 10.9371 17.9161 10.7993L18.0815 10.6218H19.234H20.3866L20.552 10.7993ZM17.1953 11.7454C17.3032 11.9894 17.6498 12.3109 17.8873 12.3873C18.0114 12.4272 18.4927 12.4482 19.264 12.4475C20.3517 12.4465 20.468 12.4375 20.6687 12.34C20.9387 12.2089 21.1343 12.0146 21.2594 11.7534L21.355 11.5541L22.0979 11.5707C22.8184 11.5869 22.846 11.5917 23.0123 11.728C23.3684 12.0198 23.3462 11.6031 23.332 17.739C23.3192 23.2082 23.3185 23.2463 23.2189 23.3895C23.1637 23.4687 23.0582 23.582 22.9843 23.6412C22.8515 23.7476 22.8103 23.7488 19.234 23.7488C15.6578 23.7488 15.6166 23.7476 15.4838 23.6412C15.4099 23.582 15.3044 23.4687 15.2492 23.3895C15.1497 23.2464 15.1488 23.2065 15.1349 17.8078C15.1272 14.8172 15.1335 12.2947 15.149 12.2022C15.184 11.9929 15.3885 11.7262 15.5842 11.6348C15.6837 11.5882 15.9596 11.5647 16.4232 11.5634L17.114 11.5613L17.1953 11.7454ZM16.0571 13.7699C15.9562 13.8852 15.9514 13.936 15.9514 14.883C15.9514 15.8527 15.9539 15.8779 16.0639 15.9888C16.2211 16.1473 16.7309 16.153 16.8754 15.9979C17.0556 15.8045 16.9379 15.3716 16.7052 15.3716C16.6454 15.3716 16.6322 15.2817 16.6322 14.8757V14.3799H17.092C17.5176 14.3799 17.5609 14.3896 17.6734 14.5103C17.827 14.6752 17.9656 14.676 18.1177 14.5127C18.2098 14.4139 18.2371 14.3298 18.2371 14.145C18.2371 13.9602 18.2098 13.8761 18.1177 13.7773C17.9994 13.6503 17.9901 13.6491 17.0806 13.6491C16.1842 13.6491 16.1604 13.6519 16.0571 13.7699ZM18.215 14.5862L17.6839 15.158L17.4753 14.9516C17.2181 14.6972 17.0299 14.6768 16.8762 14.8865C16.7233 15.0951 16.7809 15.2406 17.1873 15.6717C17.6951 16.2104 17.6617 16.2201 18.5392 15.2783C19.1122 14.6633 19.2584 14.4777 19.2584 14.3649C19.2584 14.1714 19.1001 14.0145 18.9049 14.0145C18.7675 14.0145 18.6744 14.0917 18.215 14.5862ZM19.8018 14.6572C19.6646 14.814 19.6673 15.0112 19.8086 15.1537C19.9178 15.2638 19.9566 15.2672 21.0996 15.2672H22.278L22.3973 15.139C22.463 15.0686 22.5167 14.9618 22.5167 14.9018C22.5167 14.8418 22.463 14.735 22.3973 14.6646L22.278 14.5364H21.0928C19.9167 14.5364 19.9067 14.5374 19.8018 14.6572ZM16.0571 17.1104C15.9562 17.2257 15.9514 17.2765 15.9514 18.2235C15.9514 19.5377 15.8618 19.4427 17.101 19.4427C18.3255 19.4427 18.2371 19.5388 18.2371 18.2089C18.2371 16.8946 18.3266 16.9896 17.0874 16.9896C16.1839 16.9896 16.1604 16.9924 16.0571 17.1104ZM17.5562 18.2162V18.712H17.0942H16.6322V18.2162V17.7203H17.0942H17.5562V18.2162ZM19.8018 17.9977C19.6646 18.1544 19.6673 18.3517 19.8086 18.4942C19.9178 18.6042 19.9566 18.6076 21.0996 18.6076H22.278L22.3973 18.4795C22.463 18.409 22.5167 18.3023 22.5167 18.2423C22.5167 18.1822 22.463 18.0755 22.3973 18.005L22.278 17.8769H21.0928C19.9167 17.8769 19.9067 17.8778 19.8018 17.9977ZM16.0708 20.4582C15.9524 20.5851 15.9514 20.5951 15.9514 21.5712C15.9514 22.5334 15.954 22.5589 16.0639 22.6697C16.2211 22.8282 16.7309 22.8339 16.8754 22.6788C17.0556 22.4854 16.9379 22.0525 16.7052 22.0525C16.6454 22.0525 16.6322 21.9626 16.6322 21.5566V21.0608H17.0942C17.462 21.0608 17.5562 21.076 17.5562 21.1353C17.5562 21.2335 17.7875 21.4261 17.9054 21.4261C17.9565 21.4261 18.052 21.3685 18.1177 21.298C18.216 21.1926 18.2371 21.1184 18.2371 20.8781C18.2371 20.6378 18.216 20.5636 18.1177 20.4582C17.9995 20.3314 17.9893 20.3301 17.0942 20.3301C16.1991 20.3301 16.1889 20.3314 16.0708 20.4582ZM18.2174 21.3185L17.6778 21.8894L17.473 21.6839C17.351 21.5614 17.2205 21.4783 17.1502 21.4783C16.9667 21.4783 16.8106 21.644 16.8106 21.8386C16.8106 21.9774 16.8728 22.0736 17.17 22.3948C17.6893 22.9559 17.6609 22.9639 18.5431 22.0094C19.3058 21.1843 19.3567 21.0894 19.1592 20.8619C19.0982 20.7916 19.0018 20.7476 18.9085 20.7476C18.7812 20.7476 18.6714 20.8383 18.2174 21.3185ZM19.8018 21.3381C19.6646 21.4949 19.6673 21.6921 19.8086 21.8346C19.9178 21.9447 19.9566 21.9481 21.0996 21.9481H22.278L22.3973 21.82C22.463 21.7495 22.5167 21.6428 22.5167 21.5827C22.5167 21.5227 22.463 21.416 22.3973 21.3455L22.278 21.2174H21.0928C19.9167 21.2174 19.9067 21.2183 19.8018 21.3381Z" fill="black"/>
</svg>
