<svg width="19" height="17" viewBox="0 0 19 17" fill="none" xmlns="http://www.w3.org/2000/svg">
<path fill-rule="evenodd" clip-rule="evenodd" d="M6.96686 0.80586C2.49179 1.35904 -0.307682 5.47904 1.14576 9.37291C1.75012 10.992 3.03429 12.3256 4.74168 13.1072C6.34106 13.8393 8.27016 13.9774 10.0012 13.4836C10.7269 13.2766 11.7749 12.7664 12.3073 12.3609L12.4286 12.2685L14.8561 14.4856C17.489 16.8904 17.3621 16.7916 17.7367 16.7273C17.9359 16.6931 18.1779 16.4716 18.2152 16.2894C18.2855 15.9465 18.3934 16.0626 15.766 13.6528L13.3436 11.4311L13.4446 11.32C13.6823 11.0585 14.0789 10.4737 14.286 10.0791C15.6208 7.53642 15.0304 4.54424 12.806 2.57833C11.2481 1.20137 9.08328 0.544212 6.96686 0.80586ZM8.96207 2.02464C10.3863 2.28025 11.6573 3.01013 12.5293 4.07301C13.0471 4.70425 13.3964 5.41154 13.5905 6.22173C13.7062 6.70489 13.7164 7.75615 13.6099 8.22808C13.3019 9.59275 12.5334 10.7203 11.3632 11.5245C10.6757 11.9969 9.90324 12.3164 9.01737 12.4947C8.45347 12.6083 7.30083 12.6083 6.73693 12.4947C4.94061 12.1331 3.46848 11.1029 2.68145 9.65685C2.28946 8.93663 2.10663 8.2977 2.06597 7.50601C1.95014 5.25091 3.39096 3.19646 5.69919 2.32546C6.09119 2.17757 6.70234 2.02697 7.12933 1.97313C7.52412 1.92332 8.55972 1.95243 8.96207 2.02464Z" fill="#474747"/>
</svg>
