<svg width="24" height="25" viewBox="0 0 24 25" fill="none" xmlns="http://www.w3.org/2000/svg">
<path fill-rule="evenodd" clip-rule="evenodd" d="M11.7861 0.566579C11.6442 0.674185 11.612 0.910823 11.612 1.84767V2.75057H9.69222C8.63635 2.75057 7.73827 2.7637 7.69651 2.77969C7.51466 2.84945 7.48327 3.03456 7.48327 4.03762V5.00114H6.5523H5.62132L5.25673 3.55937C4.85826 1.98378 4.74988 1.70874 4.4003 1.38672C4.28601 1.28146 4.05143 1.12852 3.8791 1.04694L3.5657 0.898539H2.15453H0.743401L0.513695 1.04042C0.371255 1.12842 0.230034 1.26955 0.141971 1.41186C0.0185792 1.61136 0 1.68525 0 1.97694C0 2.26862 0.0185792 2.34251 0.141971 2.54202C0.229894 2.68408 0.371395 2.82559 0.51346 2.91346L0.742932 3.05534L1.80185 3.07878L2.86077 3.10222L4.86089 10.9323C6.6937 18.1076 6.87767 18.795 7.06017 19.1516C7.41487 19.8444 8.06692 20.3822 8.84387 20.6228L9.19574 20.7317H16.1864C22.9088 20.7317 23.1838 20.7284 23.3527 20.6444C23.7325 20.4558 24.0009 20.0338 23.996 19.6332C23.991 19.2299 23.7355 18.834 23.3702 18.6641L23.1301 18.5524L16.3488 18.5519L9.56751 18.5515L9.35855 18.446C9.2436 18.3879 9.10463 18.2728 9.04964 18.19C8.94234 18.0285 8.57695 16.6458 8.62809 16.5947C8.65831 16.5644 9.62377 16.4442 18.11 15.4135C20.4582 15.1282 22.5143 14.8725 22.6792 14.8452C23.234 14.7532 23.6509 14.4452 23.8744 13.9623C23.9741 13.7466 23.9747 13.7246 23.9873 9.48939L24 5.23323L23.8839 5.11719L23.7678 5.00114H22.5692H21.3707V2.86568V0.730168L21.2555 0.615107L21.1404 0.5L16.5052 0.5015C12.6782 0.502719 11.8554 0.514066 11.7861 0.566579ZM20.667 3.10222V5.00114H20.4068C20.1931 5.00114 20.126 5.02172 20.0315 5.11625C19.8883 5.25935 19.883 5.45196 20.0183 5.59595L20.1203 5.70444H21.7073H23.2943V9.62138C23.2943 13.4308 23.2918 13.5433 23.2016 13.72C23.1118 13.8958 22.9412 14.0484 22.762 14.1133C22.7143 14.1305 22.0704 14.2182 21.331 14.3081C20.5916 14.3981 18.6143 14.6396 16.9371 14.8447C9.75687 15.7229 8.4119 15.8846 8.40214 15.8704C8.39651 15.8622 7.92166 14.0097 7.34698 11.7538C6.77229 9.49783 6.28219 7.61499 6.25794 7.56965C6.16096 7.38858 5.82677 7.40016 5.68588 7.58944L5.59158 7.71617L6.89451 12.8173C7.61117 15.6229 8.23756 18.0483 8.28658 18.207C8.40064 18.5764 8.70128 18.9196 9.06893 19.1L9.33649 19.2313L16.2333 19.2555C20.0265 19.2687 23.1348 19.2845 23.1406 19.2906C23.1943 19.3468 23.2943 19.599 23.2943 19.678C23.2943 19.7329 23.2326 19.8394 23.1572 19.9148L23.02 20.0518L16.2721 20.051C8.94413 20.0501 9.17777 20.0581 8.65146 19.7916C8.33585 19.6317 7.86297 19.1813 7.7058 18.8908C7.63969 18.7686 7.5421 18.521 7.4889 18.3405C7.43574 18.1599 6.51509 14.5731 5.44299 10.3697C4.37093 6.16628 3.47013 2.66828 3.44123 2.59641C3.41228 2.52448 3.35068 2.44538 3.30432 2.42058C3.25717 2.39536 2.73325 2.37548 2.11657 2.37548C0.945566 2.37548 0.82316 2.35616 0.732375 2.15712C0.648816 1.97375 0.670914 1.86188 0.820251 1.71264L0.960204 1.57277L2.21983 1.58731L3.47951 1.60184L3.70884 1.74363C4.12936 2.00362 4.14414 2.04136 4.73693 4.36817C5.30909 6.61414 5.31974 6.64218 5.59702 6.64218C5.75569 6.64218 5.93515 6.4695 5.93444 6.31754C5.93416 6.2511 5.90437 6.08601 5.86834 5.9506L5.80275 5.70444H12.3456H18.8884L19.0035 5.58934C19.0669 5.52604 19.1187 5.44268 19.1187 5.40404C19.1187 5.27229 19.0147 5.10537 18.9002 5.05319C18.8219 5.01755 18.1288 5.00114 16.7003 5.00114H14.6147V4.07039C14.6147 3.54141 14.5934 3.07873 14.5654 2.99846C14.4868 2.77317 14.3736 2.75057 13.3222 2.75057H12.3626V1.97694V1.2033H16.5148H20.667V3.10222ZM13.9109 4.22751V5.00114H11.049H8.18703V4.22751V3.45387H11.049H13.9109V4.22751ZM9.51506 7.36485L9.38341 7.47803V10.7123C9.38341 13.8271 9.3867 13.9503 9.47279 14.0454C9.53369 14.1126 9.6188 14.1441 9.73989 14.1441C10.0809 14.1441 10.0637 14.3273 10.0637 10.6909V7.44606L9.94008 7.34891C9.77916 7.22236 9.67632 7.22625 9.51506 7.36485ZM11.7671 7.36485L11.6354 7.47803V10.5717C11.6354 13.5482 11.6388 13.6691 11.7248 13.7641C11.7849 13.8305 11.8709 13.8628 11.9873 13.8628C12.1037 13.8628 12.1897 13.8305 12.2498 13.7641C12.3358 13.6691 12.3392 13.5482 12.3392 10.5717V7.47803L12.2075 7.36485C12.1351 7.30263 12.0361 7.25171 11.9873 7.25171C11.9386 7.25171 11.8395 7.30263 11.7671 7.36485ZM14.0345 7.34891L13.9109 7.44606V10.44V13.434L14.0345 13.5311C14.1955 13.6577 14.2983 13.6538 14.4596 13.5152L14.5912 13.402V10.44V7.47803L14.4596 7.36485C14.2983 7.22625 14.1955 7.22236 14.0345 7.34891ZM16.3975 7.28495C16.3588 7.29921 16.2902 7.343 16.245 7.38229C16.1685 7.44892 16.1629 7.64777 16.1629 10.2994C16.1629 12.95 16.1686 13.15 16.245 13.2189C16.2902 13.2595 16.3847 13.3072 16.455 13.3247C16.5584 13.3505 16.6099 13.3296 16.7248 13.2147L16.8667 13.0729V10.2994V7.52581L16.7295 7.38876C16.5939 7.25321 16.5345 7.23464 16.3975 7.28495ZM18.6174 7.29893C18.561 7.32162 18.4924 7.3822 18.4649 7.43354C18.3956 7.56299 18.3954 12.754 18.4647 12.8835C18.5852 13.1084 18.9573 13.0872 19.0657 12.8493C19.1397 12.6871 19.1405 7.63215 19.0666 7.47006C19.038 7.40724 18.9631 7.3324 18.9002 7.30376C18.7683 7.24369 18.7551 7.24351 18.6174 7.29893ZM20.8694 7.29893C20.8131 7.32162 20.7444 7.3822 20.7169 7.43354C20.6833 7.49627 20.667 8.35543 20.667 10.0537V12.5805L20.7755 12.6824C20.9196 12.8177 21.1123 12.8124 21.2555 12.6693L21.3707 12.5542L21.3701 10.0788C21.3697 8.7173 21.3565 7.55502 21.3406 7.49599C21.3248 7.43692 21.2523 7.35782 21.1794 7.32017C21.0297 7.2428 21.0119 7.24158 20.8694 7.29893ZM6.98215 21.6364C6.6176 21.7665 6.34084 22.018 6.16152 22.3821C5.55338 23.6165 6.81353 24.9245 8.07504 24.3681C8.58526 24.1431 8.93761 23.6044 8.93765 23.0492C8.9377 22.6376 8.83232 22.3519 8.57484 22.0656C8.16254 21.6074 7.53615 21.4386 6.98215 21.6364ZM21.9823 21.6555C21.6314 21.7901 21.2764 22.1495 21.1434 22.5049C20.8754 23.2205 21.1908 24.0145 21.8768 24.3511C22.1027 24.462 22.2039 24.4826 22.5202 24.4826C22.8357 24.4826 22.9379 24.4619 23.1611 24.3523C23.4674 24.202 23.731 23.9314 23.8737 23.621C24.029 23.2827 24.0155 22.7373 23.843 22.3861C23.5054 21.6993 22.6963 21.3815 21.9823 21.6555ZM7.89572 22.3811C8.11843 22.5459 8.23394 22.7624 8.23394 23.015C8.23394 23.2924 8.14583 23.4765 7.93686 23.6359C7.62876 23.8707 7.26056 23.8511 6.96484 23.5841C6.56862 23.2264 6.62535 22.6494 7.08448 22.3665C7.23719 22.2724 7.3184 22.2542 7.52038 22.2689C7.67174 22.2799 7.81826 22.3237 7.89572 22.3811ZM22.9639 22.3948C23.1369 22.5178 23.2917 22.817 23.2933 23.0309C23.2951 23.2814 23.1074 23.5796 22.8738 23.6973C22.6206 23.8249 22.4419 23.8291 22.1871 23.7135C21.8965 23.5815 21.7695 23.3724 21.7695 23.0255C21.7695 22.7887 21.7908 22.7127 21.8953 22.5758C21.9644 22.4852 22.091 22.3754 22.1768 22.3317C22.3921 22.222 22.7629 22.2517 22.9639 22.3948Z" fill="black"/>
</svg>
