<svg width="17" height="20" viewBox="0 0 17 20" fill="none" xmlns="http://www.w3.org/2000/svg">
<path fill-rule="evenodd" clip-rule="evenodd" d="M6.80512 0.570754C6.61257 0.639011 6.49989 0.742061 6.40113 0.940205C6.27791 1.1875 6.27976 1.35637 6.40846 1.60271C6.4919 1.76243 6.54912 1.81965 6.70884 1.90308C6.89096 1.99821 6.93845 2.00614 7.32755 2.00614H7.74901V2.74352V3.48086L7.64722 3.49993C7.59125 3.51044 7.46214 3.52947 7.36035 3.54224C6.63504 3.63329 5.75884 3.90732 4.99137 4.28313C4.13343 4.70322 3.56054 5.10865 2.88586 5.77311C1.41428 7.22238 0.590799 9.08932 0.506552 11.1674C0.416345 13.3924 1.26081 15.5454 2.84403 17.1269C4.85426 19.1349 7.73446 19.9222 10.503 19.2203C12.394 18.741 14.084 17.5367 15.181 15.8869C15.8094 14.9417 16.2572 13.7648 16.4343 12.5925C16.5218 12.0134 16.5219 10.912 16.4344 10.3412C16.2234 8.96373 15.7096 7.72934 14.8987 6.65156L14.6759 6.35544L15.0768 5.94827C15.4892 5.52944 15.572 5.41195 15.6146 5.18483C15.6913 4.77588 15.2969 4.33621 14.856 4.33914C14.6553 4.34043 14.4276 4.49216 14.0231 4.89422L13.6159 5.29895L13.4494 5.1651C12.9371 4.75349 12.066 4.25745 11.3904 3.99271C10.8627 3.78594 10.091 3.59654 9.40545 3.50555L9.22963 3.4822V2.74418V2.00614H9.65649C10.1248 2.00614 10.2815 1.96446 10.4637 1.79134C10.6224 1.64061 10.6852 1.49159 10.6852 1.26583C10.6852 1.04007 10.6224 0.891048 10.4637 0.740322C10.2386 0.526558 10.2266 0.525263 8.49976 0.528446C7.48269 0.530334 6.87645 0.545436 6.80512 0.570754ZM9.12391 4.96947C11.6561 5.22784 13.7857 6.88298 14.6468 9.26174C15.4474 11.4732 14.9796 13.9434 13.4154 15.7646C12.7285 16.5642 11.6458 17.2935 10.6362 17.6366C9.96734 17.8639 9.4586 17.9566 8.72992 17.9841C6.53435 18.067 4.4857 17.0514 3.16796 15.2269C2.88908 14.8408 2.46244 13.9984 2.30716 13.5275C1.17486 10.0931 3.04866 6.38361 6.4799 5.26671C7.37623 4.97495 8.2334 4.8786 9.12391 4.96947ZM11.0989 7.90649C10.9542 7.97545 10.5854 8.32488 9.40937 9.50704C8.58193 10.3388 7.87579 11.0773 7.84018 11.1481C7.71274 11.4014 7.78914 11.8245 7.99494 12.0051C8.21415 12.1975 8.5806 12.2533 8.82331 12.1312C8.9911 12.0468 11.9533 9.09768 12.0424 8.92627C12.2091 8.60564 12.1659 8.30108 11.9186 8.05378C11.6735 7.8087 11.4052 7.76047 11.0989 7.90649Z" fill="#474747"/>
<path fill-rule="evenodd" clip-rule="evenodd" d="M6.80512 0.570754C6.61257 0.639011 6.49989 0.742061 6.40113 0.940205C6.27791 1.1875 6.27976 1.35637 6.40846 1.60271C6.4919 1.76243 6.54912 1.81965 6.70884 1.90308C6.89096 1.99821 6.93845 2.00614 7.32755 2.00614H7.74901V2.74352V3.48086L7.64722 3.49993C7.59125 3.51044 7.46214 3.52947 7.36035 3.54224C6.63504 3.63329 5.75884 3.90732 4.99137 4.28313C4.13343 4.70322 3.56054 5.10865 2.88586 5.77311C1.41428 7.22238 0.590799 9.08932 0.506552 11.1674C0.416345 13.3924 1.26081 15.5454 2.84403 17.1269C4.85426 19.1349 7.73446 19.9222 10.503 19.2203C12.394 18.741 14.084 17.5367 15.181 15.8869C15.8094 14.9417 16.2572 13.7648 16.4343 12.5925C16.5218 12.0134 16.5219 10.912 16.4344 10.3412C16.2234 8.96373 15.7096 7.72934 14.8987 6.65156L14.6759 6.35544L15.0768 5.94827C15.4892 5.52944 15.572 5.41195 15.6146 5.18483C15.6913 4.77588 15.2969 4.33621 14.856 4.33914C14.6553 4.34043 14.4276 4.49216 14.0231 4.89422L13.6159 5.29895L13.4494 5.1651C12.9371 4.75349 12.066 4.25745 11.3904 3.99271C10.8627 3.78594 10.091 3.59654 9.40545 3.50555L9.22963 3.4822V2.74418V2.00614H9.65649C10.1248 2.00614 10.2815 1.96446 10.4637 1.79134C10.6224 1.64061 10.6852 1.49159 10.6852 1.26583C10.6852 1.04007 10.6224 0.891048 10.4637 0.740322C10.2386 0.526558 10.2266 0.525263 8.49976 0.528446C7.48269 0.530334 6.87645 0.545436 6.80512 0.570754ZM9.12391 4.96947C11.6561 5.22784 13.7857 6.88298 14.6468 9.26174C15.4474 11.4732 14.9796 13.9434 13.4154 15.7646C12.7285 16.5642 11.6458 17.2935 10.6362 17.6366C9.96734 17.8639 9.4586 17.9566 8.72992 17.9841C6.53435 18.067 4.4857 17.0514 3.16796 15.2269C2.88908 14.8408 2.46244 13.9984 2.30716 13.5275C1.17486 10.0931 3.04866 6.38361 6.4799 5.26671C7.37623 4.97495 8.2334 4.8786 9.12391 4.96947ZM11.0989 7.90649C10.9542 7.97545 10.5854 8.32488 9.40937 9.50704C8.58193 10.3388 7.87579 11.0773 7.84018 11.1481C7.71274 11.4014 7.78914 11.8245 7.99494 12.0051C8.21415 12.1975 8.5806 12.2533 8.82331 12.1312C8.9911 12.0468 11.9533 9.09768 12.0424 8.92627C12.2091 8.60564 12.1659 8.30108 11.9186 8.05378C11.6735 7.8087 11.4052 7.76047 11.0989 7.90649Z" fill="#474747"/>
</svg>
