<svg width="24" height="25" viewBox="0 0 24 25" fill="none" xmlns="http://www.w3.org/2000/svg">
<path fill-rule="evenodd" clip-rule="evenodd" d="M17.0975 0.517897C16.9462 0.605487 10.613 5.65003 10.5468 5.73578C10.4485 5.86285 10.4731 6.09922 10.5967 6.21544C10.6941 6.3069 10.7643 6.32076 11.1297 6.32076H11.5504V8.81571V11.3107H11.2808C11.0171 11.3107 10.8352 11.3686 10.7639 11.4754C10.7444 11.5047 10.728 11.9559 10.7276 12.478C10.7269 13.382 10.7317 13.4317 10.8289 13.5195C10.928 13.6093 11.1039 13.6118 17.2522 13.6118H23.5735L23.6661 13.4974C23.7502 13.3937 23.7587 13.2965 23.7587 12.4473V11.5115L23.6311 11.4111C23.5349 11.3354 23.4334 11.3107 23.2193 11.3107H22.9352V8.81571V6.32076H23.3491C23.7241 6.32076 23.7743 6.30957 23.882 6.20183C24.0121 6.0718 24.0391 5.85384 23.9404 5.73113C23.8642 5.63642 17.502 0.581167 17.3703 0.510727C17.2505 0.446537 17.2193 0.44736 17.0975 0.517897ZM7.68561 1.21251C7.60548 1.26861 7.57791 1.33648 7.57791 1.47775C7.57791 1.66349 7.59705 1.68432 8.45487 2.43184L9.33179 3.19602L5.93139 3.22024L2.53099 3.24446L2.43836 3.35884C2.34869 3.46964 2.34579 3.61638 2.34579 8.06364C2.34579 12.6343 2.34622 12.6546 2.44621 12.7817C2.57203 12.9417 2.83131 12.9567 2.97558 12.8125C3.07106 12.717 3.07247 12.651 3.07247 8.33125V3.94693H6.19721C7.91582 3.94693 9.32195 3.95502 9.32195 3.9649C9.32195 3.97473 8.92954 4.32456 8.44993 4.74226C7.59627 5.4857 7.57791 5.50576 7.57791 5.69213C7.57791 5.84028 7.60402 5.89962 7.69558 5.95965C7.9428 6.1216 8.03291 6.06444 9.32835 4.92301C10.0043 4.32747 10.5865 3.79984 10.6222 3.75053C10.7897 3.51939 10.6549 3.37837 8.43879 1.46409C8.03601 1.11615 7.89189 1.068 7.68561 1.21251ZM19.8325 3.38137C21.2059 4.47256 22.3836 5.41681 22.4496 5.4797L22.5696 5.59408H17.2215C14.2801 5.59408 11.8825 5.58618 11.8936 5.57654C11.9047 5.5669 13.11 4.60801 14.5721 3.44571C16.0341 2.2834 17.254 1.347 17.2829 1.36487C17.3118 1.38275 18.4591 2.29018 19.8325 3.38137ZM16.8484 2.54641C16.5691 2.62732 16.2431 2.89454 16.0873 3.17034C15.6193 3.99876 16.2599 5.02959 17.2428 5.02959C17.9673 5.02959 18.501 4.48637 18.4984 3.75179C18.4952 2.89614 17.6848 2.30404 16.8484 2.54641ZM17.5125 3.28157C17.6021 3.34194 17.7051 3.4694 17.7414 3.56484C17.7982 3.71405 17.7972 3.76288 17.734 3.91422C17.5793 4.2843 17.1552 4.38061 16.8725 4.1098C16.6055 3.85401 16.6671 3.4101 16.9919 3.24994C17.2031 3.14578 17.3217 3.153 17.5125 3.28157ZM13.246 8.81571V11.3107H12.7616H12.2771V8.81571V6.32076H12.7616H13.246V8.81571ZM16.0559 8.81571V11.3107H15.0143H13.9727V8.81571V6.32076H15.0143H16.0559V8.81571ZM17.703 8.81571V11.3107H17.2428H16.7826V8.81571V6.32076H17.2428H17.703V8.81571ZM20.5129 8.81571V11.3107H19.4713H18.4297V8.81571V6.32076H19.4713H20.5129V8.81571ZM22.2085 8.81571V11.3107H21.724H21.2396V8.81571V6.32076H21.724H22.2085V8.81571ZM3.40616 14.0006C1.61062 15.4267 0.10411 16.6522 0.0584259 16.7239C-0.0399671 16.8781 -0.0122563 17.0625 0.127752 17.1847C0.203714 17.251 0.313589 17.2695 0.631344 17.2695H1.03775V19.7644V22.2594H0.75362C0.539491 22.2594 0.437997 22.2841 0.341833 22.3598L0.214179 22.4602V23.3906C0.214179 24.1543 0.227695 24.3403 0.289608 24.4286L0.36499 24.5363H6.72536C12.8256 24.5363 13.089 24.5327 13.1659 24.4477C13.2348 24.3716 13.246 24.2249 13.246 23.4061C13.246 22.2578 13.2467 22.2594 12.7374 22.2594H12.4225V19.7644V17.2695H12.8277C13.1644 17.2695 13.2546 17.2525 13.3606 17.169C13.5133 17.0489 13.5339 16.7995 13.4035 16.6502C13.2975 16.5288 7.0498 11.5363 6.91077 11.4619C6.85486 11.432 6.77802 11.4075 6.73999 11.4075C6.70196 11.4075 5.20175 12.5744 3.40616 14.0006ZM23.0321 12.4734V12.9094H17.2428H11.4536V12.4734V12.0373H17.2428H23.0321V12.4734ZM9.3096 14.2966C10.7152 15.406 11.9194 16.3652 11.9853 16.4282L12.1054 16.5428H6.75433H1.40328L1.52332 16.4272C1.65471 16.3007 6.70918 12.2796 6.7368 12.2796C6.74615 12.2796 7.9039 13.1872 9.3096 14.2966ZM6.41493 13.4391C5.91148 13.5922 5.54654 14.0085 5.47033 14.5166C5.35489 15.2867 6.12086 16.0529 6.89076 15.9375C7.6904 15.8176 8.16982 15.0692 7.94421 14.293C7.76186 13.6658 7.02398 13.2538 6.41493 13.4391ZM6.92438 14.1418C7.09704 14.214 7.28675 14.465 7.28704 14.6219C7.28743 14.8001 7.1342 15.0336 6.96391 15.1144C6.73927 15.221 6.51937 15.1771 6.34003 14.9899C6.08889 14.7278 6.18563 14.2916 6.52785 14.1427C6.72226 14.0582 6.72425 14.0582 6.92438 14.1418ZM19.9862 14.496C19.9089 14.5692 19.3854 15.1472 18.8228 15.7804C18.1076 16.5854 17.7999 16.9659 17.7999 17.0456C17.7999 17.1082 17.8461 17.2181 17.9024 17.2898C17.9854 17.3952 18.0379 17.4172 18.1792 17.4053C18.3355 17.3921 18.4112 17.3253 18.9124 16.7572C19.2198 16.4088 19.5632 16.0164 19.6755 15.8852L19.8797 15.6465L19.8814 19.3163L19.8831 22.986H17.168H14.4528L14.3339 23.105C14.1813 23.2575 14.1784 23.4677 14.3271 23.6074L14.4392 23.7127H17.4425C19.9597 23.7127 20.4611 23.7016 20.54 23.644C20.6313 23.5772 20.6347 23.4648 20.6582 19.6442L20.6824 15.7133L21.4447 16.5871C21.948 17.1642 22.2498 17.4718 22.333 17.4927C22.5213 17.5399 22.7132 17.379 22.7321 17.1579C22.7462 16.9927 22.6907 16.9189 21.697 15.782C21.1196 15.1213 20.5939 14.5317 20.5289 14.4717C20.3665 14.3221 20.1601 14.3313 19.9862 14.496ZM2.73335 19.7644V22.2594H2.24889H1.76444V19.7644V17.2695H2.24889H2.73335V19.7644ZM5.5432 19.7644V22.2594H4.50161H3.46003V19.7644V17.2695H4.50161H5.5432V19.7644ZM7.19035 19.7644V22.2594H6.73011H6.26988V19.7644V17.2695H6.73011H7.19035V19.7644ZM10.0002 19.7644V22.2594H8.95861H7.91703V19.7644V17.2695H8.95861H10.0002V19.7644ZM11.6958 19.7644V22.2594H11.2113H10.7269V19.7644V17.2695H11.2113H11.6958V19.7644ZM12.5194 23.3978V23.8096H6.73011H0.940863V23.3978V22.986H6.73011H12.5194V23.3978Z" fill="black"/>
</svg>
