<svg width="19" height="20" viewBox="0 0 19 20" fill="none" xmlns="http://www.w3.org/2000/svg">
<path fill-rule="evenodd" clip-rule="evenodd" d="M8.82982 1.03913C7.39422 1.23958 6.15576 2.06689 5.3805 3.3433C4.83679 4.23847 4.60664 5.38909 4.76199 6.43534C4.94077 7.63938 5.53447 8.70434 6.45149 9.4659C6.60835 9.59617 6.61994 9.61495 6.55719 9.637C5.9303 9.85747 5.15669 10.2276 4.62697 10.5605C4.10095 10.8911 3.66362 11.2364 3.16283 11.7165C1.92085 12.9071 1.05676 14.3854 0.612519 16.0794C0.519816 16.4327 0.500508 16.5725 0.500015 16.8936C0.499486 17.2274 0.512981 17.32 0.597297 17.5617C0.827661 18.2221 1.31573 18.7046 1.9767 18.9253L2.22334 19.0076H9.49928H16.7752L17.0219 18.9253C17.6828 18.7046 18.1709 18.2221 18.4013 17.5617C18.485 17.3217 18.4992 17.2251 18.5 16.8936C18.5005 16.6575 18.4823 16.4532 18.4535 16.3708C18.2424 15.7681 17.4199 15.7231 17.1559 16.2998C17.0787 16.4684 17.0702 16.5228 17.0909 16.7162C17.1055 16.8526 17.0988 16.9979 17.0736 17.0917C17.0207 17.2879 16.7902 17.5233 16.5989 17.5764C16.498 17.6044 14.4884 17.6155 9.49928 17.6155C4.51013 17.6155 2.5006 17.6044 2.39962 17.5764C2.13215 17.5021 1.88949 17.1724 1.88882 16.8823C1.8885 16.759 2.05463 16.1281 2.19205 15.7308C2.43785 15.0201 2.94561 14.1066 3.4358 13.4934C3.70072 13.162 4.28696 12.5735 4.61647 12.3083C6.45096 10.8317 8.77634 10.2645 11.0796 10.7321C11.6934 10.8566 12.2858 11.0614 12.8994 11.361C14.0683 11.9317 15.0021 12.715 15.7889 13.785C16.0947 14.2009 16.2018 14.2792 16.4887 14.2964C16.6655 14.307 16.7335 14.2939 16.8633 14.2245C17.1815 14.0545 17.3223 13.6279 17.1631 13.3164C17.0388 13.0732 16.51 12.4077 16.1056 11.9856C15.1425 10.9804 13.9581 10.1981 12.7056 9.74003C12.5603 9.68686 12.4288 9.63214 12.4134 9.61843C12.3981 9.60473 12.4774 9.51798 12.5896 9.4257C12.7019 9.33342 12.9097 9.12973 13.0515 8.97304C14.7574 7.0881 14.6823 4.19745 12.8806 2.39573C11.8135 1.32862 10.3255 0.83033 8.82982 1.03913ZM10.1456 2.46708C10.8238 2.60453 11.3915 2.90899 11.8794 3.39692C12.3695 3.88704 12.6702 4.44959 12.8128 5.14283C13.0738 6.41262 12.5015 7.81622 11.419 8.56097C11.1542 8.74314 10.628 8.97579 10.2899 9.06014C9.84504 9.17117 9.15352 9.17117 8.70862 9.06014C8.37054 8.97579 7.84431 8.74314 7.57956 8.56097C6.49708 7.81622 5.92477 6.41262 6.18578 5.14283C6.32831 4.44959 6.62903 3.88704 7.11915 3.39692C7.92687 2.58921 9.04831 2.24465 10.1456 2.46708Z" fill="#474747"/>
</svg>
